<svg width="75" height="44" viewBox="0 0 75 44" fill="none" xmlns="http://www.w3.org/2000/svg">
<path d="M24.9642 29.5355H15.5322L14.0202 33.9995H7.57617L16.7202 8.72754H23.8482L32.9922 33.9995H26.4762L24.9642 29.5355ZM23.3802 24.7835L20.2482 15.5315L17.1522 24.7835H23.3802ZM66.8651 9.51954C67.5131 9.54354 67.8371 9.71154 67.8371 10.0235C67.8371 10.2635 67.6331 10.5755 67.2251 10.9595C66.8411 11.3195 66.3851 11.6435 65.8571 11.9315C65.3531 12.2195 64.9451 12.3635 64.6331 12.3635H63.6251C64.0571 14.3075 64.2731 15.9395 64.2731 17.2595C64.2731 17.7875 64.2371 18.2915 64.1651 18.7715C64.0211 19.7795 63.3251 20.7155 62.0771 21.5795C63.0851 22.1075 63.6731 22.8155 63.8411 23.7035C64.0091 24.5675 64.0931 25.5755 64.0931 26.7275C64.0931 27.6395 64.0451 28.9115 63.9491 30.5435C64.2371 30.4955 64.6691 30.3995 65.2451 30.2555C65.5331 30.1835 65.7971 30.1475 66.0371 30.1475C66.5171 30.1475 66.8771 30.2675 67.1171 30.5075C67.3811 30.7475 67.5131 31.0595 67.5131 31.4435C67.5131 31.8755 67.3451 32.2955 67.0091 32.7035C66.6971 33.1115 66.2651 33.4115 65.7131 33.6035C64.2251 34.0835 62.5331 34.3595 60.6371 34.4315C60.1811 34.4555 59.7611 34.3355 59.3771 34.0715C59.0171 33.8315 58.8371 33.4955 58.8371 33.0635C58.8611 31.6715 58.8731 29.5835 58.8731 26.7995C58.8731 26.6075 58.8851 26.4275 58.9091 26.2595C58.9331 26.0915 58.9451 25.9235 58.9451 25.7555C58.9451 25.3715 58.8491 25.0475 58.6571 24.7835C58.4891 24.5915 58.0091 24.3755 57.2171 24.1355C56.4491 23.8715 55.9811 23.7155 55.8131 23.6675C55.3571 23.4755 55.1291 23.1755 55.1291 22.7675C55.1291 22.4075 55.2611 22.0475 55.5251 21.6875C55.8131 21.3035 56.1131 21.0275 56.4251 20.8595L57.3251 20.3915C57.8291 20.1275 58.2011 19.8995 58.4411 19.7075C58.7051 19.5155 58.8971 19.2635 59.0171 18.9515C59.1611 18.6155 59.2211 18.1835 59.1971 17.6555C59.0531 15.6875 58.7411 13.6595 58.2611 11.5715C58.2371 11.4995 58.2251 11.4035 58.2251 11.2835C58.2251 10.6595 58.5971 10.1435 59.3411 9.73554C60.0851 9.30354 60.8291 9.08754 61.5731 9.08754C61.7651 9.08754 61.9091 9.09954 62.0051 9.12354C63.4211 9.33954 65.0411 9.47154 66.8651 9.51954Z" fill="#2096F0"/>
<path d="M39.7347 33.9638C38.6067 33.9398 38.0427 33.5918 38.0427 32.9198C38.0427 32.5838 38.1987 32.2118 38.5107 31.8038C38.8467 31.3958 39.2547 31.0478 39.7347 30.7598C40.2387 30.4718 40.7307 30.3278 41.2107 30.3278L42.3627 30.3998C42.3387 29.9438 42.2787 29.2598 42.1827 28.3478C42.0387 27.1958 41.9667 26.3198 41.9667 25.7198C41.9667 25.3838 41.9787 25.1318 42.0027 24.9638C42.0507 24.3878 42.2307 23.8358 42.5427 23.3078C42.8787 22.7558 43.3227 22.1558 43.8747 21.5078C42.3627 21.1958 41.4387 20.5958 41.1027 19.7078C41.0067 19.4438 40.9587 19.1438 40.9587 18.8078C40.9587 18.4238 41.0307 17.8718 41.1747 17.1518C41.1987 17.0318 41.2347 16.8518 41.2827 16.6118C41.3307 16.3478 41.3547 16.1318 41.3547 15.9638C41.4027 15.2438 41.4267 14.7158 41.4267 14.3798C41.4267 13.6598 41.3907 12.9398 41.3187 12.2198C40.5027 12.1478 39.2667 12.0878 37.6107 12.0398C36.9627 12.0158 36.6387 11.8358 36.6387 11.4998C36.6387 11.2598 36.8307 10.9598 37.2147 10.5998C37.5987 10.2398 38.0427 9.92776 38.5467 9.66376C39.0507 9.37576 39.4587 9.23176 39.7707 9.23176H41.3547C42.4347 9.23176 43.2267 9.18376 43.7307 9.08776C43.8747 9.06376 44.0787 9.05176 44.3427 9.05176C45.3747 9.05176 45.9387 9.44776 46.0347 10.2398C46.1787 11.4878 46.2507 12.7238 46.2507 13.9478C46.2507 14.6918 46.2387 15.2438 46.2147 15.6038C46.1907 15.7718 46.1427 16.0358 46.0707 16.3958C46.0227 16.7558 45.9987 17.0558 45.9987 17.2958C45.9987 17.5358 46.0347 17.7158 46.1067 17.8358C46.2987 18.1238 46.7067 18.2678 47.3307 18.2678C47.9787 18.2438 48.3267 18.2318 48.3747 18.2318C48.8787 18.2558 49.2987 18.3998 49.6347 18.6638C49.9707 18.9038 50.1387 19.2158 50.1387 19.5998C50.1387 19.9118 50.0187 20.2238 49.7787 20.5358L48.8787 21.6878C48.2547 22.4558 47.7867 23.1278 47.4747 23.7038C47.1867 24.2558 47.0427 24.9158 47.0427 25.6838C47.0427 26.0438 47.0667 26.4638 47.1147 26.9438C47.1627 27.4238 47.1987 27.7718 47.2227 27.9878C47.3667 28.9958 47.4387 29.7758 47.4387 30.3278C47.4387 30.7118 47.4027 31.1078 47.3307 31.5158C47.2347 31.9958 47.0067 32.4278 46.6467 32.8118C46.2867 33.1718 45.8667 33.4238 45.3867 33.5678C44.4747 33.8558 43.3107 33.9998 41.8947 33.9998L39.7347 33.9638Z" fill="white"/>
<mask id="mask0_242_21" style="mask-type:luminance" maskUnits="userSpaceOnUse" x="6" y="7" width="63" height="29">
<path d="M69 7H6V36H69V7Z" fill="white"/>
<path d="M24.388 29.808H14.956L13.444 34.272H7L16.144 9H23.272L32.416 34.272H25.9L24.388 29.808ZM22.804 25.056L19.672 15.804L16.576 25.056H22.804ZM66.2889 9.792C66.9369 9.816 67.2609 9.984 67.2609 10.296C67.2609 10.536 67.0569 10.848 66.6489 11.232C66.2649 11.592 65.8089 11.916 65.2809 12.204C64.7769 12.492 64.3689 12.636 64.0569 12.636H63.0489C63.4809 14.58 63.6969 16.212 63.6969 17.532C63.6969 18.06 63.6609 18.564 63.5889 19.044C63.4449 20.052 62.7489 20.988 61.5009 21.852C62.5089 22.38 63.0969 23.088 63.2649 23.976C63.4329 24.84 63.5169 25.848 63.5169 27C63.5169 27.912 63.4689 29.184 63.3729 30.816C63.6609 30.768 64.0929 30.672 64.6689 30.528C64.9569 30.456 65.2209 30.42 65.4609 30.42C65.9409 30.42 66.3009 30.54 66.5409 30.78C66.8049 31.02 66.9369 31.332 66.9369 31.716C66.9369 32.148 66.7689 32.568 66.4329 32.976C66.1209 33.384 65.6889 33.684 65.1369 33.876C63.6489 34.356 61.9569 34.632 60.0609 34.704C59.6049 34.728 59.1849 34.608 58.8009 34.344C58.4409 34.104 58.2609 33.768 58.2609 33.336C58.2849 31.944 58.2969 29.856 58.2969 27.072C58.2969 26.88 58.3089 26.7 58.3329 26.532C58.3569 26.364 58.3689 26.196 58.3689 26.028C58.3689 25.644 58.2729 25.32 58.0809 25.056C57.9129 24.864 57.4329 24.648 56.6409 24.408C55.8729 24.144 55.4049 23.988 55.2369 23.94C54.7809 23.748 54.5529 23.448 54.5529 23.04C54.5529 22.68 54.6849 22.32 54.9489 21.96C55.2369 21.576 55.5369 21.3 55.8489 21.132L56.7489 20.664C57.2529 20.4 57.6249 20.172 57.8649 19.98C58.1289 19.788 58.3209 19.536 58.4409 19.224C58.5849 18.888 58.6449 18.456 58.6209 17.928C58.4769 15.96 58.1649 13.932 57.6849 11.844C57.6609 11.772 57.6489 11.676 57.6489 11.556C57.6489 10.932 58.0209 10.416 58.7649 10.008C59.5089 9.576 60.2529 9.36 60.9969 9.36C61.1889 9.36 61.3329 9.372 61.4289 9.396C62.8449 9.612 64.4649 9.744 66.2889 9.792Z" fill="black"/>
<path d="M39.7347 33.9638C38.6067 33.9398 38.0427 33.5918 38.0427 32.9198C38.0427 32.5838 38.1987 32.2118 38.5107 31.8038C38.8467 31.3958 39.2547 31.0478 39.7347 30.7598C40.2387 30.4718 40.7307 30.3278 41.2107 30.3278L42.3627 30.3998C42.3387 29.9438 42.2787 29.2598 42.1827 28.3478C42.0387 27.1958 41.9667 26.3198 41.9667 25.7198C41.9667 25.3838 41.9787 25.1318 42.0027 24.9638C42.0507 24.3878 42.2307 23.8358 42.5427 23.3078C42.8787 22.7558 43.3227 22.1558 43.8747 21.5078C42.3627 21.1958 41.4387 20.5958 41.1027 19.7078C41.0067 19.4438 40.9587 19.1438 40.9587 18.8078C40.9587 18.4238 41.0307 17.8718 41.1747 17.1518C41.1987 17.0318 41.2347 16.8518 41.2827 16.6118C41.3307 16.3478 41.3547 16.1318 41.3547 15.9638C41.4027 15.2438 41.4267 14.7158 41.4267 14.3798C41.4267 13.6598 41.3907 12.9398 41.3187 12.2198C40.5027 12.1478 39.2667 12.0878 37.6107 12.0398C36.9627 12.0158 36.6387 11.8358 36.6387 11.4998C36.6387 11.2598 36.8307 10.9598 37.2147 10.5998C37.5987 10.2398 38.0427 9.92776 38.5467 9.66376C39.0507 9.37576 39.4587 9.23176 39.7707 9.23176H41.3547C42.4347 9.23176 43.2267 9.18376 43.7307 9.08776C43.8747 9.06376 44.0787 9.05176 44.3427 9.05176C45.3747 9.05176 45.9387 9.44776 46.0347 10.2398C46.1787 11.4878 46.2507 12.7238 46.2507 13.9478C46.2507 14.6918 46.2387 15.2438 46.2147 15.6038C46.1907 15.7718 46.1427 16.0358 46.0707 16.3958C46.0227 16.7558 45.9987 17.0558 45.9987 17.2958C45.9987 17.5358 46.0347 17.7158 46.1067 17.8358C46.2987 18.1238 46.7067 18.2678 47.3307 18.2678C47.9787 18.2438 48.3267 18.2318 48.3747 18.2318C48.8787 18.2558 49.2987 18.3998 49.6347 18.6638C49.9707 18.9038 50.1387 19.2158 50.1387 19.5998C50.1387 19.9118 50.0187 20.2238 49.7787 20.5358L48.8787 21.6878C48.2547 22.4558 47.7867 23.1278 47.4747 23.7038C47.1867 24.2558 47.0427 24.9158 47.0427 25.6838C47.0427 26.0438 47.0667 26.4638 47.1147 26.9438C47.1627 27.4238 47.1987 27.7718 47.2227 27.9878C47.3667 28.9958 47.4387 29.7758 47.4387 30.3278C47.4387 30.7118 47.4027 31.1078 47.3307 31.5158C47.2347 31.9958 47.0067 32.4278 46.6467 32.8118C46.2867 33.1718 45.8667 33.4238 45.3867 33.5678C44.4747 33.8558 43.3107 33.9998 41.8947 33.9998L39.7347 33.9638Z" fill="black"/>
</mask>
<g mask="url(#mask0_242_21)">
<path d="M24.9637 29.5355L25.9108 29.2147L25.6808 28.5355H24.9637V29.5355ZM15.5317 29.5355V28.5355H14.8146L14.5845 29.2147L15.5317 29.5355ZM14.0197 33.9995V34.9995H14.7368L14.9668 34.3203L14.0197 33.9995ZM7.57566 33.9995L6.63532 33.6593L6.15039 34.9995H7.57566V33.9995ZM16.7197 8.72754V7.72754H16.0181L15.7793 8.38734L16.7197 8.72754ZM23.8477 8.72754L24.788 8.38734L24.5493 7.72754H23.8477V8.72754ZM32.9917 33.9995V34.9995H34.417L33.932 33.6593L32.9917 33.9995ZM26.4757 33.9995L25.5286 34.3203L25.7586 34.9995H26.4757V33.9995ZM23.3797 24.7835V25.7835H24.774L24.3269 24.4629L23.3797 24.7835ZM20.2477 15.5315L21.1949 15.2109L20.2422 12.3966L19.2994 15.2142L20.2477 15.5315ZM17.1517 24.7835L16.2034 24.4662L15.7625 25.7835H17.1517V24.7835ZM24.9637 29.5355V28.5355H15.5317V29.5355V30.5355H24.9637V29.5355ZM15.5317 29.5355L14.5845 29.2147L13.0725 33.6787L14.0197 33.9995L14.9668 34.3203L16.4788 29.8563L15.5317 29.5355ZM14.0197 33.9995V32.9995H7.57566V33.9995V34.9995H14.0197V33.9995ZM7.57566 33.9995L8.516 34.3397L17.66 9.06774L16.7197 8.72754L15.7793 8.38734L6.63532 33.6593L7.57566 33.9995ZM16.7197 8.72754V9.72754H23.8477V8.72754V7.72754H16.7197V8.72754ZM23.8477 8.72754L22.9074 9.06774L32.0514 34.3397L32.9917 33.9995L33.932 33.6593L24.788 8.38734L23.8477 8.72754ZM32.9917 33.9995V32.9995H26.4757V33.9995V34.9995H32.9917V33.9995ZM26.4757 33.9995L27.4228 33.6787L25.9108 29.2147L24.9637 29.5355L24.0166 29.8563L25.5286 34.3203L26.4757 33.9995ZM23.3797 24.7835L24.3269 24.4629L21.1949 15.2109L20.2477 15.5315L19.3005 15.8521L22.4325 25.1041L23.3797 24.7835ZM20.2477 15.5315L19.2994 15.2142L16.2034 24.4662L17.1517 24.7835L18.1 25.1008L21.196 15.8488L20.2477 15.5315ZM17.1517 24.7835V25.7835H23.3797V24.7835V23.7835H17.1517V24.7835ZM39.7347 33.9635L39.7134 34.9633L39.718 34.9634L39.7347 33.9635ZM38.5107 31.8035L37.7387 31.1678L37.7273 31.1817L37.7163 31.196L38.5107 31.8035ZM39.7347 30.7595L39.2385 29.8913L39.2293 29.8965L39.2202 29.902L39.7347 30.7595ZM41.2107 30.3275L41.273 29.3294L41.2419 29.3275H41.2107V30.3275ZM42.3627 30.3995L42.3003 31.3976L43.4203 31.4676L43.3613 30.3469L42.3627 30.3995ZM42.1827 28.3475L43.1772 28.2428L43.1762 28.2331L43.1749 28.2235L42.1827 28.3475ZM42.0027 24.9635L42.9926 25.1049L42.9968 25.0758L42.9992 25.0465L42.0027 24.9635ZM42.5427 23.3075L41.6884 22.7875L41.6817 22.7988L42.5427 23.3075ZM43.8747 21.5075L44.6359 22.156L45.7317 20.8696L44.0768 20.5281L43.8747 21.5075ZM41.1027 19.7075L40.1628 20.0493L40.1674 20.0614L41.1027 19.7075ZM41.2827 16.6115L42.2632 16.8076L42.265 16.799L42.2665 16.7904L41.2827 16.6115ZM41.3547 15.9635L40.3569 15.897L40.3547 15.9302V15.9635H41.3547ZM41.3187 12.2195L42.3137 12.12L42.2313 11.2961L41.4066 11.2234L41.3187 12.2195ZM37.6107 12.0395L37.5737 13.0388L37.5817 13.0391L37.6107 12.0395ZM38.5467 9.66354L39.0107 10.5493L39.0269 10.5408L39.0428 10.5317L38.5467 9.66354ZM43.7307 9.08754L43.5663 8.10114L43.5549 8.10304L43.5436 8.10524L43.7307 9.08754ZM46.0347 10.2395L47.0281 10.1249L47.0274 10.1192L46.0347 10.2395ZM46.2147 15.6035L47.2046 15.7449L47.2099 15.7076L47.2125 15.67L46.2147 15.6035ZM46.0707 16.3955L45.0901 16.1994L45.0837 16.2312L45.0794 16.2633L46.0707 16.3955ZM46.1067 17.8355L45.2492 18.35L45.2614 18.3704L45.2746 18.3902L46.1067 17.8355ZM47.3307 18.2675V19.2675H47.3492L47.3677 19.2668L47.3307 18.2675ZM48.3747 18.2315L48.4222 17.2326L48.3985 17.2315H48.3747V18.2315ZM49.6347 18.6635L49.0168 19.4498L49.0348 19.4639L49.0534 19.4772L49.6347 18.6635ZM49.7787 20.5355L50.5667 21.1512L50.5713 21.1452L49.7787 20.5355ZM48.8787 21.6875L49.6548 22.3181L49.6608 22.3107L49.6667 22.3031L48.8787 21.6875ZM47.4747 23.7035L46.5954 23.2272L46.5917 23.234L46.5881 23.2409L47.4747 23.7035ZM47.2227 27.9875L46.2288 28.0979L46.2305 28.1135L46.2327 28.1289L47.2227 27.9875ZM47.3307 31.5155L48.3112 31.7116L48.3135 31.7005L48.3155 31.6893L47.3307 31.5155ZM46.6467 32.8115L47.3538 33.5186L47.3652 33.5072L47.3762 33.4954L46.6467 32.8115ZM45.3867 33.5675L45.0993 32.6097L45.0924 32.6117L45.0855 32.6139L45.3867 33.5675ZM41.8947 33.9995L41.878 34.9994L41.8863 34.9995H41.8947V33.9995ZM39.7347 33.9635L39.7559 32.9637C39.5207 32.9587 39.3413 32.9371 39.2091 32.9081C39.0756 32.8787 39.0118 32.8465 38.9908 32.8335C38.9757 32.8242 39 32.8363 39.0235 32.8789C39.0467 32.9208 39.0427 32.9444 39.0427 32.9195H38.0427H37.0427C37.0427 33.5964 37.3584 34.1763 37.9406 34.5355C38.4465 34.8477 39.0814 34.9498 39.7134 34.9633L39.7347 33.9635ZM38.0427 32.9195H39.0427C39.0427 32.8921 39.0597 32.7317 39.305 32.411L38.5107 31.8035L37.7163 31.196C37.3376 31.6913 37.0427 32.2749 37.0427 32.9195H38.0427ZM38.5107 31.8035L39.2826 32.4392C39.5419 32.1244 39.8612 31.8498 40.2492 31.617L39.7347 30.7595L39.2202 29.902C38.6482 30.2452 38.1515 30.6666 37.7387 31.1678L38.5107 31.8035ZM39.7347 30.7595L40.2308 31.6277C40.6153 31.4081 40.9378 31.3275 41.2107 31.3275V30.3275V29.3275C40.5236 29.3275 39.8621 29.5349 39.2385 29.8913L39.7347 30.7595ZM41.2107 30.3275L41.1483 31.3256L42.3003 31.3976L42.3627 30.3995L42.425 29.4014L41.273 29.3294L41.2107 30.3275ZM42.3627 30.3995L43.3613 30.3469C43.3359 29.8638 43.2736 29.1586 43.1772 28.2428L42.1827 28.3475L41.1882 28.4522C41.2838 29.3604 41.3415 30.0232 41.3641 30.4521L42.3627 30.3995ZM42.1827 28.3475L43.1749 28.2235C43.0323 27.0821 42.9667 26.2558 42.9667 25.7195H41.9667H40.9667C40.9667 26.3832 41.0451 27.3089 41.1904 28.4715L42.1827 28.3475ZM41.9667 25.7195H42.9667C42.9667 25.3945 42.979 25.2002 42.9926 25.1049L42.0027 24.9635L41.0127 24.8221C40.9783 25.0628 40.9667 25.3725 40.9667 25.7195H41.9667ZM42.0027 24.9635L42.9992 25.0465C43.0339 24.63 43.1635 24.2225 43.4036 23.8162L42.5427 23.3075L41.6817 22.7988C41.2978 23.4485 41.0674 24.145 41.0061 24.8805L42.0027 24.9635ZM42.5427 23.3075L43.3969 23.8274C43.6983 23.3323 44.1082 22.7755 44.6359 22.156L43.8747 21.5075L43.1134 20.859C42.5372 21.5355 42.059 22.1786 41.6884 22.7875L42.5427 23.3075ZM43.8747 21.5075L44.0768 20.5281C42.6834 20.2406 42.1911 19.7583 42.038 19.3536L41.1027 19.7075L40.1674 20.0614C40.6863 21.4327 42.0419 22.1504 43.6726 22.4869L43.8747 21.5075ZM41.1027 19.7075L42.0425 19.3658C41.9932 19.2304 41.9587 19.0492 41.9587 18.8075H40.9587H39.9587C39.9587 19.2378 40.02 19.6567 40.1628 20.0493L41.1027 19.7075ZM40.9587 18.8075H41.9587C41.9587 18.5244 42.0147 18.0501 42.1552 17.3476L41.1747 17.1515L40.1941 16.9554C40.0466 17.6929 39.9587 18.3226 39.9587 18.8075H40.9587ZM41.1747 17.1515L42.1552 17.3476C42.1792 17.2276 42.2152 17.0476 42.2632 16.8076L41.2827 16.6115L40.3021 16.4154C40.2541 16.6554 40.2181 16.8354 40.1941 16.9554L41.1747 17.1515ZM41.2827 16.6115L42.2665 16.7904C42.3197 16.4978 42.3547 16.2161 42.3547 15.9635H41.3547H40.3547C40.3547 16.0469 40.3416 16.1972 40.2988 16.4326L41.2827 16.6115ZM41.3547 15.9635L42.3525 16.03C42.4007 15.307 42.4267 14.7509 42.4267 14.3795H41.4267H40.4267C40.4267 14.6801 40.4047 15.18 40.3569 15.897L41.3547 15.9635ZM41.4267 14.3795H42.4267C42.4267 13.6261 42.389 12.8729 42.3137 12.12L41.3187 12.2195L40.3236 12.319C40.3923 13.0061 40.4267 13.6929 40.4267 14.3795H41.4267ZM41.3187 12.2195L41.4066 11.2234C40.5599 11.1487 39.2997 11.088 37.6396 11.0399L37.6107 12.0395L37.5817 13.0391C39.2336 13.087 40.4454 13.1463 41.2308 13.2156L41.3187 12.2195ZM37.6107 12.0395L37.6477 11.0402C37.5262 11.0357 37.4431 11.0245 37.3908 11.0136C37.3364 11.0021 37.3367 10.9953 37.3673 11.0123C37.402 11.0316 37.4797 11.0844 37.5463 11.1905C37.616 11.3015 37.6387 11.4154 37.6387 11.4995H36.6387H35.6387C35.6387 12.0742 35.9565 12.5165 36.396 12.7607C36.7631 12.9646 37.1937 13.0247 37.5737 13.0388L37.6107 12.0395ZM36.6387 11.4995H37.6387C37.6387 11.6419 37.5852 11.6957 37.6249 11.6336C37.6605 11.578 37.7412 11.4766 37.8986 11.329L37.2147 10.5995L36.5307 9.87004C36.3041 10.0824 36.0968 10.311 35.9404 10.5554C35.7882 10.7933 35.6387 11.1171 35.6387 11.4995H36.6387ZM37.2147 10.5995L37.8986 11.329C38.2116 11.0356 38.5803 10.7748 39.0107 10.5493L38.5467 9.66354L38.0827 8.77774C37.5051 9.08024 36.9857 9.44344 36.5307 9.87004L37.2147 10.5995ZM38.5467 9.66354L39.0428 10.5317C39.5054 10.2674 39.7261 10.2315 39.7707 10.2315V9.23154V8.23154C39.1913 8.23154 38.5959 8.48364 38.0505 8.79534L38.5467 9.66354ZM39.7707 9.23154V10.2315H41.3547V9.23154V8.23154H39.7707V9.23154ZM41.3547 9.23154V10.2315C42.4445 10.2315 43.3158 10.1845 43.9178 10.0698L43.7307 9.08754L43.5436 8.10524C43.1375 8.18254 42.4248 8.23154 41.3547 8.23154V9.23154ZM43.7307 9.08754L43.8951 10.0739C43.9578 10.0634 44.0973 10.0515 44.3427 10.0515V9.05154V8.05154C44.06 8.05154 43.7915 8.06364 43.5663 8.10114L43.7307 9.08754ZM44.3427 9.05154V10.0515C44.7496 10.0515 44.9161 10.1325 44.965 10.1669C44.9841 10.1803 44.9927 10.191 45.0008 10.2054C45.0106 10.2231 45.0308 10.2681 45.0419 10.3598L46.0347 10.2395L47.0274 10.1192C46.9512 9.49064 46.6658 8.91734 46.1143 8.53014C45.5992 8.16844 44.9677 8.05154 44.3427 8.05154V9.05154ZM46.0347 10.2395L45.0413 10.3541C45.181 11.5651 45.2507 12.7628 45.2507 13.9475H46.2507H47.2507C47.2507 12.6842 47.1764 11.4099 47.0281 10.1249L46.0347 10.2395ZM46.2507 13.9475H45.2507C45.2507 14.6874 45.2386 15.2118 45.2169 15.537L46.2147 15.6035L47.2125 15.67C47.2388 15.2752 47.2507 14.6956 47.2507 13.9475H46.2507ZM46.2147 15.6035L45.2247 15.4621C45.2049 15.6008 45.1616 15.8417 45.0901 16.1994L46.0707 16.3955L47.0513 16.5916C47.1237 16.2293 47.1764 15.9422 47.2046 15.7449L46.2147 15.6035ZM46.0707 16.3955L45.0794 16.2633C45.0282 16.6474 44.9987 16.995 44.9987 17.2955H45.9987H46.9987C46.9987 17.116 47.0171 16.8636 47.0619 16.5277L46.0707 16.3955ZM45.9987 17.2955H44.9987C44.9987 17.6029 45.039 17.9996 45.2492 18.35L46.1067 17.8355L46.9642 17.321C46.9838 17.3538 46.9948 17.3801 47.0003 17.3955C47.0058 17.4109 47.007 17.418 47.0062 17.4144C47.0055 17.4109 47.0035 17.3995 47.0018 17.3788C47 17.3583 46.9987 17.3308 46.9987 17.2955H45.9987ZM46.1067 17.8355L45.2746 18.3902C45.7611 19.1199 46.6341 19.2675 47.3307 19.2675V18.2675V17.2675C47.0863 17.2675 46.9506 17.2381 46.8895 17.2165C46.8377 17.1982 46.8874 17.2039 46.9387 17.2808L46.1067 17.8355ZM47.3307 18.2675L47.3677 19.2668C47.6914 19.2548 47.9394 19.2459 48.1121 19.2399C48.1986 19.2369 48.2653 19.2347 48.3127 19.2333C48.3682 19.2316 48.3813 19.2315 48.3747 19.2315V18.2315V17.2315C48.3022 17.2315 47.9236 17.2449 47.2937 17.2682L47.3307 18.2675ZM48.3747 18.2315L48.3271 19.2304C48.6621 19.2463 48.8722 19.3361 49.0168 19.4498L49.6347 18.6635L50.2525 17.8772C49.7252 17.4629 49.0952 17.2647 48.4222 17.2326L48.3747 18.2315ZM49.6347 18.6635L49.0534 19.4772C49.1175 19.523 49.1317 19.5507 49.1322 19.5516C49.1331 19.5533 49.134 19.5552 49.1351 19.5596C49.1363 19.5645 49.1387 19.5768 49.1387 19.5995H50.1387H51.1387C51.1387 18.8651 50.7915 18.2609 50.2159 17.8498L49.6347 18.6635ZM50.1387 19.5995H49.1387C49.1387 19.6388 49.1273 19.7422 48.986 19.9258L49.7787 20.5355L50.5713 21.1452C50.9101 20.7048 51.1387 20.1842 51.1387 19.5995H50.1387ZM49.7787 20.5355L48.9906 19.9199L48.0906 21.0719L48.8787 21.6875L49.6667 22.3031L50.5667 21.1512L49.7787 20.5355ZM48.8787 21.6875L48.1026 21.0569C47.4571 21.8513 46.9478 22.5766 46.5954 23.2272L47.4747 23.7035L48.354 24.1798C48.6256 23.6784 49.0523 23.0597 49.6548 22.3181L48.8787 21.6875ZM47.4747 23.7035L46.5881 23.2409C46.2102 23.9653 46.0427 24.7914 46.0427 25.6835H47.0427H48.0427C48.0427 25.0396 48.1632 24.5457 48.3613 24.1661L47.4747 23.7035ZM47.0427 25.6835H46.0427C46.0427 26.0857 46.0694 26.5403 46.1196 27.043L47.1147 26.9435L48.1097 26.844C48.064 26.3867 48.0427 26.0013 48.0427 25.6835H47.0427ZM47.1147 26.9435L46.1196 27.043C46.1677 27.5234 46.2041 27.8761 46.2288 28.0979L47.2227 27.9875L48.2166 27.8771C48.1932 27.6669 48.1577 27.3236 48.1097 26.844L47.1147 26.9435ZM47.2227 27.9875L46.2327 28.1289C46.3746 29.1221 46.4387 29.8468 46.4387 30.3275H47.4387H48.4387C48.4387 29.7042 48.3587 28.8689 48.2126 27.8461L47.2227 27.9875ZM47.4387 30.3275H46.4387C46.4387 30.6489 46.4085 30.9866 46.3459 31.3417L47.3307 31.5155L48.3155 31.6893C48.3968 31.2284 48.4387 30.7741 48.4387 30.3275H47.4387ZM47.3307 31.5155L46.3501 31.3194C46.2934 31.6027 46.1596 31.8689 45.9171 32.1276L46.6467 32.8115L47.3762 33.4954C47.8537 32.9861 48.1759 32.3883 48.3112 31.7116L47.3307 31.5155ZM46.6467 32.8115L45.9396 32.1044C45.6946 32.3493 45.4182 32.514 45.0993 32.6097L45.3867 33.5675L45.674 34.5253C46.3151 34.333 46.8787 33.9937 47.3538 33.5186L46.6467 32.8115ZM45.3867 33.5675L45.0855 32.6139C44.3056 32.8602 43.2527 32.9995 41.8947 32.9995V33.9995V34.9995C43.3687 34.9995 44.6437 34.8508 45.6878 34.5211L45.3867 33.5675ZM41.8947 33.9995L41.9113 32.9996L39.7513 32.9636L39.7347 33.9635L39.718 34.9634L41.878 34.9994L41.8947 33.9995ZM66.8646 9.51954L66.9016 8.52014L66.8909 8.51984L66.8646 9.51954ZM67.2246 10.9595L67.9086 11.689L67.91 11.6877L67.2246 10.9595ZM65.8566 11.9315L65.3778 11.0536L65.3691 11.0583L65.3605 11.0633L65.8566 11.9315ZM63.6246 12.3635V11.3635H62.378L62.6484 12.5804L63.6246 12.3635ZM64.1646 18.7715L63.1756 18.6232L63.1747 18.6301L64.1646 18.7715ZM62.0766 21.5795L61.5074 20.7573L60.1482 21.6983L61.6126 22.4653L62.0766 21.5795ZM63.8406 23.7035L62.858 23.8894L62.859 23.8944L63.8406 23.7035ZM63.9486 30.5435L62.9503 30.4848L62.8767 31.7359L64.113 31.5299L63.9486 30.5435ZM67.1166 30.5075L66.4095 31.2146L66.4263 31.2314L66.4439 31.2474L67.1166 30.5075ZM67.0086 32.7035L66.2367 32.0678L66.2252 32.0817L66.2142 32.096L67.0086 32.7035ZM65.7126 33.6035L66.0196 34.5552L66.0304 34.5517L66.0411 34.548L65.7126 33.6035ZM60.6366 34.4315L60.5987 33.4322L60.5914 33.4325L60.584 33.4329L60.6366 34.4315ZM59.3766 34.0715L59.9431 33.2475L59.9372 33.2434L59.9313 33.2394L59.3766 34.0715ZM58.8366 33.0635L57.8368 33.0463L57.8366 33.0549V33.0635H58.8366ZM58.6566 24.7835L59.4653 24.1953L59.4388 24.1589L59.4092 24.125L58.6566 24.7835ZM57.2166 24.1355L56.8915 25.0812L56.909 25.0872L56.9266 25.0925L57.2166 24.1355ZM55.8126 23.6675L55.4245 24.5891L55.48 24.6125L55.5379 24.629L55.8126 23.6675ZM55.5246 21.6875L54.7246 21.0875L54.7182 21.0961L55.5246 21.6875ZM56.4246 20.8595L55.9633 19.9723L55.9569 19.9756L55.9505 19.979L56.4246 20.8595ZM57.3246 20.3915L57.786 21.2787L57.7886 21.2773L57.3246 20.3915ZM58.4406 19.7075L57.8524 18.8988L57.8339 18.9123L57.8159 18.9266L58.4406 19.7075ZM59.0166 18.9515L58.0975 18.5576L58.09 18.5749L58.0833 18.5925L59.0166 18.9515ZM59.1966 17.6555L60.1956 17.6101L60.1949 17.5963L60.1939 17.5825L59.1966 17.6555ZM58.2606 11.5715L59.2352 11.3475L59.2244 11.3007L59.2093 11.2553L58.2606 11.5715ZM59.3406 9.73554L59.8214 10.6123L59.8322 10.6064L59.8427 10.6003L59.3406 9.73554ZM62.0046 9.12354L61.7621 10.0936L61.8075 10.105L61.8538 10.1121L62.0046 9.12354ZM66.8646 9.51954L66.8276 10.5188C66.952 10.5234 67.0392 10.5343 67.0961 10.5455C67.1555 10.5573 67.1602 10.5652 67.1333 10.5513C67.1038 10.536 67.0213 10.486 66.947 10.376C66.8672 10.2578 66.8366 10.1287 66.8366 10.0235H67.8366H68.8366C68.8366 9.76234 68.7655 9.49524 68.6047 9.25704C68.4494 9.02704 68.2454 8.87504 68.0539 8.77574C67.6954 8.58994 67.2758 8.53394 66.9016 8.52014L66.8646 9.51954ZM67.8366 10.0235H66.8366C66.8366 9.94184 66.8538 9.88814 66.8604 9.87034C66.8667 9.85314 66.8669 9.85934 66.8466 9.89024C66.8036 9.95604 66.7114 10.0692 66.5392 10.2313L67.2246 10.9595L67.91 11.6877C68.1458 11.4658 68.3596 11.231 68.5206 10.9847C68.6746 10.7492 68.8366 10.4178 68.8366 10.0235H67.8366ZM67.2246 10.9595L66.5407 10.23C66.2265 10.5245 65.8417 10.8005 65.3778 11.0536L65.8566 11.9315L66.3355 12.8094C66.9275 12.4865 67.4548 12.1145 67.9086 11.689L67.2246 10.9595ZM65.8566 11.9315L65.3605 11.0633C64.8979 11.3276 64.6772 11.3635 64.6326 11.3635V12.3635V13.3635C65.212 13.3635 65.8074 13.1114 66.3527 12.7997L65.8566 11.9315ZM64.6326 12.3635V11.3635H63.6246V12.3635V13.3635H64.6326V12.3635ZM63.6246 12.3635L62.6484 12.5804C63.0717 14.4853 63.2726 16.0393 63.2726 17.2595H64.2726H65.2726C65.2726 15.8397 65.0415 14.1297 64.6008 12.1466L63.6246 12.3635ZM64.2726 17.2595H63.2726C63.2726 17.7421 63.2396 18.1963 63.1756 18.6232L64.1646 18.7715L65.1535 18.9198C65.2335 18.3867 65.2726 17.8329 65.2726 17.2595H64.2726ZM64.1646 18.7715L63.1747 18.6301C63.0859 19.2512 62.6391 19.9738 61.5074 20.7573L62.0766 21.5795L62.6458 22.4017C64.0101 21.4572 64.9553 20.3078 65.1546 18.9129L64.1646 18.7715ZM62.0766 21.5795L61.6126 22.4653C62.4267 22.8918 62.7612 23.3777 62.858 23.8894L63.8406 23.7035L64.8232 23.5176C64.584 22.2533 63.7425 21.3232 62.5406 20.6937L62.0766 21.5795ZM63.8406 23.7035L62.859 23.8944C63.0117 24.6797 63.0926 25.6212 63.0926 26.7275H64.0926H65.0926C65.0926 25.5298 65.0055 24.4553 64.8222 23.5126L63.8406 23.7035ZM64.0926 26.7275H63.0926C63.0926 27.6104 63.0459 28.8596 62.9503 30.4848L63.9486 30.5435L64.9469 30.6022C65.0433 28.9634 65.0926 27.6686 65.0926 26.7275H64.0926ZM63.9486 30.5435L64.113 31.5299C64.4421 31.475 64.9059 31.3709 65.4871 31.2256L65.2446 30.2555L65.0021 29.2854C64.4313 29.4281 64.0311 29.516 63.7842 29.5571L63.9486 30.5435ZM65.2446 30.2555L65.4871 31.2256C65.7137 31.169 65.895 31.1475 66.0366 31.1475V30.1475V29.1475C65.6983 29.1475 65.3515 29.198 65.0021 29.2854L65.2446 30.2555ZM66.0366 30.1475V31.1475C66.1963 31.1475 66.2952 31.1678 66.3504 31.1862C66.3769 31.195 66.3922 31.203 66.3996 31.2075C66.4067 31.2117 66.4091 31.2142 66.4095 31.2146L67.1166 30.5075L67.8237 29.8004C67.33 29.3067 66.6708 29.1475 66.0366 29.1475V30.1475ZM67.1166 30.5075L66.4439 31.2474C66.4823 31.2823 66.5126 31.3171 66.5126 31.4435H67.5126H68.5126C68.5126 30.8019 68.279 30.2127 67.7893 29.7676L67.1166 30.5075ZM67.5126 31.4435H66.5126C66.5126 31.5951 66.4593 31.7974 66.2367 32.0678L67.0086 32.7035L67.7805 33.3392C68.2299 32.7936 68.5126 32.1559 68.5126 31.4435H67.5126ZM67.0086 32.7035L66.2142 32.096C66.037 32.3278 65.7774 32.5222 65.3841 32.659L65.7126 33.6035L66.0411 34.548C66.7518 34.3008 67.3562 33.8952 67.803 33.311L67.0086 32.7035ZM65.7126 33.6035L65.4056 32.6518C64.0209 33.0985 62.422 33.363 60.5987 33.4322L60.6366 34.4315L60.6746 35.4308C62.6432 35.356 64.4283 35.0685 66.0196 34.5552L65.7126 33.6035ZM60.6366 34.4315L60.584 33.4329C60.3528 33.4451 60.1497 33.3894 59.9431 33.2475L59.3766 34.0715L58.8101 34.8955C59.3716 35.2816 60.0084 35.4659 60.6892 35.4301L60.6366 34.4315ZM59.3766 34.0715L59.9313 33.2394C59.8695 33.1982 59.8554 33.1717 59.8531 33.1673C59.8508 33.1629 59.8366 33.137 59.8366 33.0635H58.8366H57.8366C57.8366 33.8305 58.1842 34.4784 58.8219 34.9036L59.3766 34.0715ZM58.8366 33.0635L59.8365 33.0807C59.8606 31.6798 59.8726 29.5848 59.8726 26.7995H58.8726H57.8726C57.8726 29.5822 57.8606 31.6632 57.8368 33.0463L58.8366 33.0635ZM58.8726 26.7995H59.8726C59.8726 26.6488 59.8821 26.5165 59.8986 26.4009L58.9086 26.2595L57.9187 26.1181C57.8872 26.3385 57.8726 26.5662 57.8726 26.7995H58.8726ZM58.9086 26.2595L59.8986 26.4009C59.9292 26.1866 59.9446 25.9713 59.9446 25.7555H58.9446H57.9446C57.9446 25.8757 57.936 25.9964 57.9187 26.1181L58.9086 26.2595ZM58.9446 25.7555H59.9446C59.9446 25.1986 59.8025 24.6589 59.4653 24.1953L58.6566 24.7835L57.8479 25.3717C57.8947 25.4361 57.9446 25.5444 57.9446 25.7555H58.9446ZM58.6566 24.7835L59.4092 24.125C59.1746 23.8569 58.8418 23.683 58.581 23.5656C58.2863 23.433 57.9233 23.3047 57.5066 23.1785L57.2166 24.1355L56.9266 25.0925C57.3019 25.2063 57.5749 25.306 57.7602 25.3894C57.8524 25.4309 57.909 25.4622 57.9393 25.4812C57.975 25.5037 57.9491 25.4936 57.904 25.442L58.6566 24.7835ZM57.2166 24.1355L57.5417 23.1898C56.7855 22.9299 56.2871 22.763 56.0873 22.706L55.8126 23.6675L55.5379 24.629C55.6742 24.668 56.1117 24.8131 56.8915 25.0812L57.2166 24.1355ZM55.8126 23.6675L56.2007 22.7459C56.085 22.6972 56.0756 22.6669 56.0958 22.6934C56.1063 22.7072 56.1166 22.7262 56.1232 22.7467C56.1296 22.7664 56.1286 22.7755 56.1286 22.7675H55.1286H54.1286C54.1286 23.1708 54.246 23.5649 54.5034 23.9036C54.7516 24.2301 55.0842 24.4458 55.4245 24.5891L55.8126 23.6675ZM55.1286 22.7675H56.1286C56.1286 22.6667 56.1621 22.5091 56.331 22.2789L55.5246 21.6875L54.7182 21.0961C54.3591 21.5859 54.1286 22.1482 54.1286 22.7675H55.1286ZM55.5246 21.6875L56.3246 22.2875C56.5548 21.9806 56.7512 21.8194 56.8987 21.74L56.4246 20.8595L55.9505 19.979C55.474 20.2356 55.0704 20.6264 54.7246 21.0875L55.5246 21.6875ZM56.4246 20.8595L56.886 21.7467L57.786 21.2787L57.3246 20.3915L56.8633 19.5043L55.9633 19.9723L56.4246 20.8595ZM57.3246 20.3915L57.7886 21.2773C58.3102 21.0041 58.7496 20.7409 59.0653 20.4884L58.4406 19.7075L57.8159 18.9266C57.6516 19.0581 57.347 19.2509 56.8606 19.5057L57.3246 20.3915ZM58.4406 19.7075L59.0288 20.5162C59.4527 20.2079 59.7625 19.798 59.95 19.3105L59.0166 18.9515L58.0833 18.5925C58.0308 18.729 57.9565 18.8231 57.8524 18.8988L58.4406 19.7075ZM59.0166 18.9515L59.9358 19.3454C60.1596 18.8232 60.2236 18.2265 60.1956 17.6101L59.1966 17.6555L58.1976 17.7009C58.2176 18.1405 58.1617 18.4078 58.0975 18.5576L59.0166 18.9515ZM59.1966 17.6555L60.1939 17.5825C60.0459 15.5595 59.7256 13.481 59.2352 11.3475L58.2606 11.5715L57.286 11.7955C57.7556 13.838 58.0593 15.8155 58.1993 17.7285L59.1966 17.6555ZM58.2606 11.5715L59.2093 11.2553C59.2164 11.2765 59.2204 11.293 59.2227 11.3035C59.2249 11.314 59.2257 11.3203 59.2259 11.3215C59.226 11.3227 59.2257 11.3202 59.2253 11.3135C59.2249 11.3069 59.2246 11.297 59.2246 11.2835H58.2246H57.2246C57.2246 11.4561 57.2401 11.6722 57.3119 11.8877L58.2606 11.5715ZM58.2246 11.2835H59.2246C59.2246 11.1534 59.2661 10.9168 59.8214 10.6123L59.3406 9.73554L58.8598 8.85874C57.9271 9.37024 57.2246 10.1656 57.2246 11.2835H58.2246ZM59.3406 9.73554L59.8427 10.6003C60.4584 10.2428 61.031 10.0875 61.5726 10.0875V9.08754V8.08754C60.6263 8.08754 59.7108 8.36424 58.8385 8.87074L59.3406 9.73554ZM61.5726 9.08754V10.0875C61.6493 10.0875 61.7044 10.09 61.7416 10.093C61.7819 10.0964 61.7843 10.0992 61.7621 10.0936L62.0046 9.12354L62.2471 8.15344C62.0287 8.09884 61.7851 8.08754 61.5726 8.08754V9.08754ZM62.0046 9.12354L61.8538 10.1121C63.3204 10.3358 64.9833 10.4703 66.8383 10.5192L66.8646 9.51954L66.8909 8.51984C65.0979 8.47274 63.5208 8.34324 62.1554 8.13494L62.0046 9.12354Z" fill="black"/>
</g>
<path d="M51.5 25H52L55.5 29H54L51.5 31V25Z" fill="#D9D9D9"/>
<path d="M56.7744 30.5254H54.8867C54.8529 30.5254 54.8212 30.542 54.8027 30.5703C54.7843 30.5988 54.782 30.6351 54.7959 30.666L56.2373 33.8789L54.5596 34.4746L53.0918 31.1543C53.0797 31.1269 53.0553 31.1066 53.0264 31.0986C53.0118 31.0946 52.9969 31.0941 52.9824 31.0967L52.9424 31.1133L51.0996 32.4189V24.2588L56.7744 30.5254ZM51.667 25.7227H51.5664V31.334C51.5664 31.3713 51.5879 31.4057 51.6211 31.4229C51.6542 31.4398 51.6942 31.4366 51.7246 31.415L52.6768 30.7393L52.6777 30.7402L53.2451 30.3389L53.5283 30.9629V30.9639L54.7822 33.8125C54.8037 33.8606 54.8587 33.8836 54.9082 33.8652L55.5146 33.6406C55.5406 33.631 55.5616 33.6106 55.5723 33.585C55.5828 33.5596 55.5825 33.531 55.5713 33.5059L54.3711 30.8555L54.0146 30.0625H55.5C55.5395 30.0625 55.5758 30.0391 55.5918 30.0029C55.6077 29.9669 55.6006 29.9248 55.5742 29.8955L51.7412 25.6553L51.667 25.7227Z" fill="white" stroke="black" stroke-width="0.2" stroke-linejoin="round"/>
<path d="M51.5996 25.5996L55.4996 29.8996V29.9996H53.8996L55.4996 33.5996L54.8996 33.7996H54.7996L53.2996 30.2996L51.5996 31.3996V25.5996Z" fill="black"/>
</svg>
