<svg width="40" height="40" viewBox="0 0 40 40" fill="none" xmlns="http://www.w3.org/2000/svg">
<rect y="0.00195312" width="40" height="40" rx="20" fill="white"/>
<path d="M12.8364 24.8776H7.44668L6.58268 27.4284H2.90039L8.12553 12.9873H12.1987L17.4238 27.4284H13.7004L12.8364 24.8776ZM11.9312 22.1622L10.1415 16.8753L8.37239 22.1622H11.9312ZM36.7798 13.4399C37.15 13.4536 37.3352 13.5496 37.3352 13.7279C37.3352 13.865 37.2186 14.0433 36.9855 14.2627C36.766 14.4684 36.5055 14.6536 36.2038 14.8182C35.9158 14.9827 35.6826 15.065 35.5043 15.065H34.9283C35.1752 16.1759 35.2986 17.1084 35.2986 17.8627C35.2986 18.1644 35.2781 18.4524 35.2369 18.7267C35.1546 19.3027 34.7569 19.8376 34.0438 20.3313C34.6198 20.633 34.9558 21.0376 35.0518 21.545C35.1478 22.0387 35.1958 22.6147 35.1958 23.273C35.1958 23.7942 35.1683 24.521 35.1135 25.4536C35.278 25.4262 35.5249 25.3713 35.854 25.289C36.0186 25.2479 36.1695 25.2273 36.3066 25.2273C36.5809 25.2273 36.7866 25.2959 36.9238 25.433C37.0746 25.5702 37.15 25.7484 37.15 25.9679C37.15 26.2147 37.054 26.4547 36.862 26.6879C36.6838 26.921 36.4369 27.0924 36.1215 27.2022C35.2712 27.4764 34.3043 27.6342 33.2209 27.6753C32.9603 27.689 32.7203 27.6204 32.5009 27.4696C32.2952 27.3324 32.1923 27.1404 32.1923 26.8936C32.206 26.0982 32.2129 24.905 32.2129 23.3142C32.2129 23.2044 32.2198 23.1016 32.2335 23.0056C32.2472 22.9096 32.254 22.8136 32.254 22.7176C32.254 22.4982 32.1992 22.313 32.0895 22.1622C31.9935 22.0524 31.7192 21.929 31.2666 21.7919C30.8278 21.641 30.5603 21.5519 30.4643 21.5244C30.2038 21.4147 30.0735 21.2433 30.0735 21.0102C30.0735 20.8044 30.1489 20.5987 30.2998 20.393C30.4643 20.1736 30.6358 20.0159 30.814 19.9199L31.3283 19.6524C31.6163 19.5016 31.8289 19.3713 31.966 19.2616C32.1169 19.1519 32.2266 19.0079 32.2952 18.8296C32.3775 18.6376 32.4118 18.3907 32.398 18.089C32.3158 16.9644 32.1375 15.8056 31.8632 14.6124C31.8495 14.5713 31.8426 14.5164 31.8426 14.4479C31.8426 14.0913 32.0552 13.7964 32.4803 13.5633C32.9055 13.3164 33.3306 13.193 33.7558 13.193C33.8655 13.193 33.9478 13.1999 34.0026 13.2136C34.8118 13.337 35.7375 13.4124 36.7798 13.4399Z" fill="#2096F0"/>
<path d="M21.275 27.4083C20.6304 27.3946 20.3081 27.1957 20.3081 26.8117C20.3081 26.6197 20.3973 26.4071 20.5756 26.174C20.7676 25.9409 21.0007 25.742 21.275 25.5774C21.563 25.4129 21.8441 25.3306 22.1184 25.3306L22.7767 25.3717C22.763 25.1111 22.7287 24.7203 22.6739 24.1991C22.5916 23.5409 22.5504 23.0403 22.5504 22.6974C22.5504 22.5054 22.5573 22.3614 22.571 22.2654C22.5984 21.9363 22.7013 21.6209 22.8796 21.3191C23.0716 21.0037 23.3253 20.6609 23.6407 20.2906C22.7767 20.1123 22.2487 19.7694 22.0567 19.262C22.0019 19.1111 21.9744 18.9397 21.9744 18.7477C21.9744 18.5283 22.0156 18.2129 22.0979 17.8014C22.1116 17.7329 22.1321 17.63 22.1596 17.4929C22.187 17.342 22.2007 17.2186 22.2007 17.1226C22.2281 16.7111 22.2419 16.4094 22.2419 16.2174C22.2419 15.806 22.2213 15.3946 22.1801 14.9831C21.7139 14.942 21.0076 14.9077 20.0613 14.8803C19.691 14.8666 19.5059 14.7637 19.5059 14.5717C19.5059 14.4346 19.6156 14.2631 19.835 14.0574C20.0544 13.8517 20.3081 13.6734 20.5961 13.5226C20.8841 13.358 21.1173 13.2757 21.2956 13.2757H22.2007C22.8179 13.2757 23.2704 13.2483 23.5584 13.1934C23.6407 13.1797 23.7573 13.1729 23.9081 13.1729C24.4979 13.1729 24.8201 13.3991 24.875 13.8517C24.9573 14.5649 24.9984 15.2711 24.9984 15.9706C24.9984 16.3957 24.9916 16.7111 24.9779 16.9169C24.9641 17.0129 24.9367 17.1637 24.8956 17.3694C24.8681 17.5751 24.8544 17.7466 24.8544 17.8837C24.8544 18.0209 24.875 18.1237 24.9161 18.1923C25.0259 18.3569 25.259 18.4391 25.6156 18.4391C25.9859 18.4254 26.1847 18.4186 26.2121 18.4186C26.5001 18.4323 26.7401 18.5146 26.9321 18.6654C27.1241 18.8026 27.2201 18.9809 27.2201 19.2003C27.2201 19.3786 27.1516 19.5569 27.0144 19.7351L26.5001 20.3934C26.1436 20.8323 25.8761 21.2163 25.6979 21.5454C25.5333 21.8609 25.451 22.238 25.451 22.6769C25.451 22.8826 25.4647 23.1226 25.4921 23.3969C25.5196 23.6711 25.5401 23.87 25.5539 23.9934C25.6361 24.5694 25.6773 25.0151 25.6773 25.3306C25.6773 25.55 25.6567 25.7763 25.6156 26.0094C25.5607 26.2837 25.4304 26.5306 25.2247 26.75C25.019 26.9557 24.779 27.0997 24.5047 27.182C23.9836 27.3466 23.3184 27.4289 22.5093 27.4289L21.275 27.4083Z" fill="white"/>
<mask id="mask0_242_21" style="mask-type:luminance" maskUnits="userSpaceOnUse" x="2" y="12" width="36" height="17">
<path d="M38 12H2V28.5714H38V12Z" fill="white"/>
<path d="M12.5063 25.0338H7.1166L6.2526 27.5847H2.57031L7.79546 13.1436H11.8686L17.0937 27.5847H13.3703L12.5063 25.0338ZM11.6012 22.3184L9.81145 17.0316L8.04231 22.3184H11.6012ZM36.4497 13.5961C36.82 13.6098 37.0051 13.7058 37.0051 13.8841C37.0051 14.0213 36.8885 14.1996 36.6554 14.419C36.436 14.6247 36.1754 14.8098 35.8737 14.9744C35.5857 15.139 35.3525 15.2213 35.1743 15.2213H34.5983C34.8451 16.3321 34.9685 17.2647 34.9685 18.019C34.9685 18.3207 34.948 18.6087 34.9068 18.883C34.8245 19.459 34.4268 19.9938 33.7137 20.4876C34.2897 20.7893 34.6257 21.1938 34.7217 21.7013C34.8177 22.195 34.8657 22.771 34.8657 23.4293C34.8657 23.9504 34.8383 24.6773 34.7834 25.6098C34.948 25.5824 35.1948 25.5276 35.524 25.4453C35.6885 25.4041 35.8394 25.3836 35.9765 25.3836C36.2508 25.3836 36.4565 25.4521 36.5937 25.5893C36.7445 25.7264 36.82 25.9047 36.82 26.1241C36.82 26.371 36.724 26.611 36.532 26.8441C36.3537 27.0773 36.1068 27.2487 35.7914 27.3584C34.9411 27.6327 33.9743 27.7904 32.8908 27.8316C32.6303 27.8453 32.3903 27.7767 32.1708 27.6258C31.9651 27.4887 31.8623 27.2967 31.8623 27.0498C31.876 26.2544 31.8828 25.0613 31.8828 23.4704C31.8828 23.3607 31.8897 23.2578 31.9034 23.1618C31.9171 23.0658 31.924 22.9698 31.924 22.8738C31.924 22.6544 31.8691 22.4693 31.7594 22.3184C31.6634 22.2087 31.3891 22.0853 30.9365 21.9481C30.4977 21.7973 30.2303 21.7081 30.1343 21.6807C29.8737 21.571 29.7434 21.3996 29.7434 21.1664C29.7434 20.9607 29.8188 20.755 29.9697 20.5493C30.1343 20.3298 30.3057 20.1721 30.484 20.0761L30.9983 19.8087C31.2863 19.6578 31.4988 19.5276 31.636 19.4178C31.7868 19.3081 31.8965 19.1641 31.9651 18.9858C32.0474 18.7938 32.0817 18.547 32.068 18.2453C31.9857 17.1207 31.8074 15.9618 31.5331 14.7687C31.5194 14.7276 31.5125 14.6727 31.5125 14.6041C31.5125 14.2476 31.7251 13.9527 32.1503 13.7196C32.5754 13.4727 33.0005 13.3493 33.4257 13.3493C33.5354 13.3493 33.6177 13.3561 33.6725 13.3698C34.4817 13.4933 35.4074 13.5687 36.4497 13.5961Z" fill="black"/>
<path d="M21.275 27.4083C20.6304 27.3946 20.3081 27.1957 20.3081 26.8117C20.3081 26.6197 20.3973 26.4071 20.5756 26.174C20.7676 25.9409 21.0007 25.742 21.275 25.5774C21.563 25.4129 21.8441 25.3306 22.1184 25.3306L22.7767 25.3717C22.763 25.1111 22.7287 24.7203 22.6739 24.1991C22.5916 23.5409 22.5504 23.0403 22.5504 22.6974C22.5504 22.5054 22.5573 22.3614 22.571 22.2654C22.5984 21.9363 22.7013 21.6209 22.8796 21.3191C23.0716 21.0037 23.3253 20.6609 23.6407 20.2906C22.7767 20.1123 22.2487 19.7694 22.0567 19.262C22.0019 19.1111 21.9744 18.9397 21.9744 18.7477C21.9744 18.5283 22.0156 18.2129 22.0979 17.8014C22.1116 17.7329 22.1321 17.63 22.1596 17.4929C22.187 17.342 22.2007 17.2186 22.2007 17.1226C22.2281 16.7111 22.2419 16.4094 22.2419 16.2174C22.2419 15.806 22.2213 15.3946 22.1801 14.9831C21.7139 14.942 21.0076 14.9077 20.0613 14.8803C19.691 14.8666 19.5059 14.7637 19.5059 14.5717C19.5059 14.4346 19.6156 14.2631 19.835 14.0574C20.0544 13.8517 20.3081 13.6734 20.5961 13.5226C20.8841 13.358 21.1173 13.2757 21.2956 13.2757H22.2007C22.8179 13.2757 23.2704 13.2483 23.5584 13.1934C23.6407 13.1797 23.7573 13.1729 23.9081 13.1729C24.4979 13.1729 24.8201 13.3991 24.875 13.8517C24.9573 14.5649 24.9984 15.2711 24.9984 15.9706C24.9984 16.3957 24.9916 16.7111 24.9779 16.9169C24.9641 17.0129 24.9367 17.1637 24.8956 17.3694C24.8681 17.5751 24.8544 17.7466 24.8544 17.8837C24.8544 18.0209 24.875 18.1237 24.9161 18.1923C25.0259 18.3569 25.259 18.4391 25.6156 18.4391C25.9859 18.4254 26.1847 18.4186 26.2121 18.4186C26.5001 18.4323 26.7401 18.5146 26.9321 18.6654C27.1241 18.8026 27.2201 18.9809 27.2201 19.2003C27.2201 19.3786 27.1516 19.5569 27.0144 19.7351L26.5001 20.3934C26.1436 20.8323 25.8761 21.2163 25.6979 21.5454C25.5333 21.8609 25.451 22.238 25.451 22.6769C25.451 22.8826 25.4647 23.1226 25.4921 23.3969C25.5196 23.6711 25.5401 23.87 25.5539 23.9934C25.6361 24.5694 25.6773 25.0151 25.6773 25.3306C25.6773 25.55 25.6567 25.7763 25.6156 26.0094C25.5607 26.2837 25.4304 26.5306 25.2247 26.75C25.019 26.9557 24.779 27.0997 24.5047 27.182C23.9836 27.3466 23.3184 27.4289 22.5093 27.4289L21.275 27.4083Z" fill="black"/>
</mask>
<g mask="url(#mask0_242_21)">
<path d="M12.8344 24.8777L13.3756 24.6944L13.2442 24.3063H12.8344V24.8777ZM7.44471 24.8777V24.3063H7.03494L6.90349 24.6944L7.44471 24.8777ZM6.58071 27.4286V28H6.99048L7.12193 27.6119L6.58071 27.4286ZM2.89842 27.4286L2.36109 27.2342L2.08398 28H2.89842V27.4286ZM8.12357 12.9874V12.416H7.72265L7.58623 12.793L8.12357 12.9874ZM12.1967 12.9874L12.734 12.793L12.5976 12.416H12.1967V12.9874ZM17.4219 27.4286V28H18.2363L17.9592 27.2342L17.4219 27.4286ZM13.6984 27.4286L13.1572 27.6119L13.2887 28H13.6984V27.4286ZM11.9293 22.1623V22.7337H12.726L12.4705 21.9791L11.9293 22.1623ZM10.1396 16.8754L10.6808 16.6922L10.1364 15.0841L9.59768 16.6941L10.1396 16.8754ZM8.37042 22.1623L7.82854 21.981L7.57664 22.7337H8.37042V22.1623ZM12.8344 24.8777V24.3063H7.44471V24.8777V25.4492H12.8344V24.8777ZM7.44471 24.8777L6.90349 24.6944L6.03949 27.2453L6.58071 27.4286L7.12193 27.6119L7.98591 25.061L7.44471 24.8777ZM6.58071 27.4286V26.8572H2.89842V27.4286V28H6.58071V27.4286ZM2.89842 27.4286L3.43576 27.623L8.66088 13.1818L8.12357 12.9874L7.58623 12.793L2.36109 27.2342L2.89842 27.4286ZM8.12357 12.9874V13.5589H12.1967V12.9874V12.416H8.12357V12.9874ZM12.1967 12.9874L11.6594 13.1818L16.8845 27.623L17.4219 27.4286L17.9592 27.2342L12.734 12.793L12.1967 12.9874ZM17.4219 27.4286V26.8572H13.6984V27.4286V28H17.4219V27.4286ZM13.6984 27.4286L14.2396 27.2453L13.3756 24.6944L12.8344 24.8777L12.2932 25.061L13.1572 27.6119L13.6984 27.4286ZM11.9293 22.1623L12.4705 21.9791L10.6808 16.6922L10.1396 16.8754L9.59831 17.0586L11.388 22.3455L11.9293 22.1623ZM10.1396 16.8754L9.59768 16.6941L7.82854 21.981L8.37042 22.1623L8.91231 22.3436L10.6815 17.0568L10.1396 16.8754ZM8.37042 22.1623V22.7337H11.9293V22.1623V21.5909H8.37042V22.1623ZM21.275 27.408L21.2628 27.9793L21.2655 27.9794L21.275 27.408ZM20.5756 26.1737L20.1344 25.8105L20.1279 25.8184L20.1216 25.8266L20.5756 26.1737ZM21.275 25.5772L20.9915 25.081L20.9862 25.084L20.981 25.0872L21.275 25.5772ZM22.1184 25.3303L22.154 24.76L22.1363 24.7589H22.1184V25.3303ZM22.7767 25.3714L22.7411 25.9418L23.3811 25.9818L23.3473 25.3414L22.7767 25.3714ZM22.6739 24.1989L23.2421 24.139L23.2416 24.1335L23.2408 24.128L22.6739 24.1989ZM22.571 22.2652L23.1367 22.346L23.1391 22.3293L23.1404 22.3126L22.571 22.2652ZM22.8796 21.3189L22.3914 21.0217L22.3876 21.0282L22.8796 21.3189ZM23.6407 20.2903L24.0757 20.6609L24.7019 19.9258L23.7562 19.7306L23.6407 20.2903ZM22.0567 19.2617L21.5196 19.457L21.5223 19.464L22.0567 19.2617ZM22.1596 17.4926L22.7199 17.6046L22.7209 17.5997L22.7217 17.5948L22.1596 17.4926ZM22.2007 17.1223L21.6305 17.0843L21.6293 17.1033V17.1223H22.2007ZM22.1801 14.9829L22.7487 14.926L22.7016 14.4552L22.2304 14.4137L22.1801 14.9829ZM20.0613 14.88L20.0401 15.451L20.0447 15.4512L20.0613 14.88ZM20.5961 13.5223L20.8613 14.0285L20.8705 14.0236L20.8796 14.0184L20.5961 13.5223ZM23.5584 13.1932L23.4645 12.6295L23.458 12.6306L23.4515 12.6318L23.5584 13.1932ZM24.875 13.8514L25.4427 13.786L25.4423 13.7827L24.875 13.8514ZM24.9779 16.9166L25.5435 16.9974L25.5465 16.9761L25.548 16.9546L24.9779 16.9166ZM24.8956 17.3692L24.3352 17.2571L24.3316 17.2753L24.3291 17.2936L24.8956 17.3692ZM24.9161 18.192L24.4261 18.486L24.4331 18.4977L24.4407 18.509L24.9161 18.192ZM25.6156 18.4389V19.0103H25.6261L25.6367 19.0099L25.6156 18.4389ZM26.2121 18.4183L26.2393 17.8475L26.2257 17.8469H26.2121V18.4183ZM26.9321 18.6652L26.5791 19.1145L26.5893 19.1225L26.6 19.1301L26.9321 18.6652ZM27.0144 19.7349L27.4647 20.0867L27.4673 20.0833L27.0144 19.7349ZM26.5001 20.3932L26.9436 20.7535L26.9471 20.7493L26.9504 20.7449L26.5001 20.3932ZM25.6979 21.5452L25.1954 21.273L25.1933 21.2769L25.1912 21.2808L25.6979 21.5452ZM25.5539 23.9932L24.9859 24.0562L24.9869 24.0652L24.9881 24.074L25.5539 23.9932ZM25.6156 26.0092L26.1759 26.1212L26.1772 26.1149L26.1783 26.1085L25.6156 26.0092ZM25.2247 26.7497L25.6288 27.1538L25.6353 27.1473L25.6416 27.1405L25.2247 26.7497ZM24.5047 27.1817L24.3405 26.6344L24.3365 26.6356L24.3326 26.6368L24.5047 27.1817ZM22.5093 27.4286L22.4997 28L22.5045 28H22.5093V27.4286ZM21.275 27.408L21.2871 26.8367C21.1527 26.8338 21.0502 26.8215 20.9747 26.8049C20.8984 26.7881 20.8619 26.7697 20.8499 26.7623C20.8413 26.757 20.8552 26.7639 20.8686 26.7882C20.8819 26.8122 20.8796 26.8257 20.8796 26.8114H20.3081H19.7367C19.7367 27.1982 19.9171 27.5296 20.2498 27.7349C20.5389 27.9133 20.9017 27.9716 21.2628 27.9793L21.275 27.408ZM20.3081 26.8114H20.8796C20.8796 26.7958 20.8893 26.7041 21.0295 26.5209L20.5756 26.1737L20.1216 25.8266C19.9052 26.1096 19.7367 26.4431 19.7367 26.8114H20.3081ZM20.5756 26.1737L21.0167 26.537C21.1648 26.3571 21.3473 26.2002 21.569 26.0672L21.275 25.5772L20.981 25.0872C20.6541 25.2833 20.3703 25.5241 20.1344 25.8105L20.5756 26.1737ZM21.275 25.5772L21.5585 26.0733C21.7782 25.9478 21.9625 25.9017 22.1184 25.9017V25.3303V24.7589C21.7258 24.7589 21.3478 24.8774 20.9915 25.081L21.275 25.5772ZM22.1184 25.3303L22.0828 25.9006L22.7411 25.9418L22.7767 25.3714L22.8123 24.8011L22.154 24.76L22.1184 25.3303ZM22.7767 25.3714L23.3473 25.3414C23.3328 25.0653 23.2972 24.6624 23.2421 24.139L22.6739 24.1989L22.1056 24.2587C22.1602 24.7777 22.1932 25.1564 22.2061 25.4015L22.7767 25.3714ZM22.6739 24.1989L23.2408 24.128C23.1593 23.4758 23.1219 23.0036 23.1219 22.6972H22.5504H21.979C21.979 23.0764 22.0238 23.6054 22.1068 24.2697L22.6739 24.1989ZM22.5504 22.6972H23.1219C23.1219 22.5114 23.1289 22.4004 23.1367 22.346L22.571 22.2652L22.0053 22.1844C21.9856 22.3219 21.979 22.4989 21.979 22.6972H22.5504ZM22.571 22.2652L23.1404 22.3126C23.1603 22.0746 23.2343 21.8417 23.3715 21.6096L22.8796 21.3189L22.3876 21.0282C22.1682 21.3994 22.0365 21.7974 22.0015 22.2177L22.571 22.2652ZM22.8796 21.3189L23.3677 21.616C23.5399 21.333 23.7741 21.0149 24.0757 20.6609L23.6407 20.2903L23.2057 19.9197C22.8764 20.3063 22.6032 20.6738 22.3914 21.0217L22.8796 21.3189ZM23.6407 20.2903L23.7562 19.7306C22.96 19.5664 22.6787 19.2908 22.5912 19.0595L22.0567 19.2617L21.5223 19.464C21.8188 20.2476 22.5934 20.6577 23.5252 20.85L23.6407 20.2903ZM22.0567 19.2617L22.5937 19.0665C22.5656 18.9891 22.5459 18.8856 22.5459 18.7474H21.9744H21.403C21.403 18.9933 21.438 19.2327 21.5196 19.457L22.0567 19.2617ZM21.9744 18.7474H22.5459C22.5459 18.5857 22.5779 18.3146 22.6581 17.9132L22.0979 17.8012L21.5375 17.6891C21.4532 18.1105 21.403 18.4704 21.403 18.7474H21.9744ZM22.0979 17.8012L22.6581 17.9132C22.6719 17.8446 22.6924 17.7418 22.7199 17.6046L22.1596 17.4926L21.5992 17.3805C21.5718 17.5177 21.5512 17.6205 21.5375 17.6891L22.0979 17.8012ZM22.1596 17.4926L22.7217 17.5948C22.7521 17.4276 22.7721 17.2666 22.7721 17.1223H22.2007H21.6293C21.6293 17.17 21.6218 17.2558 21.5973 17.3904L22.1596 17.4926ZM22.2007 17.1223L22.7709 17.1603C22.7984 16.7472 22.8133 16.4294 22.8133 16.2172H22.2419H21.6704C21.6704 16.3889 21.6579 16.6746 21.6305 17.0843L22.2007 17.1223ZM22.2419 16.2172H22.8133C22.8133 15.7866 22.7917 15.3562 22.7487 14.926L22.1801 14.9829L21.6115 15.0397C21.6508 15.4324 21.6704 15.8248 21.6704 16.2172H22.2419ZM22.1801 14.9829L22.2304 14.4137C21.7465 14.371 21.0264 14.3363 20.0778 14.3088L20.0613 14.88L20.0447 15.4512C20.9887 15.4786 21.6811 15.5125 22.1299 15.5521L22.1801 14.9829ZM20.0613 14.88L20.0824 14.309C20.013 14.3064 19.9655 14.3 19.9356 14.2938C19.9045 14.2872 19.9047 14.2833 19.9222 14.293C19.942 14.3041 19.9864 14.3342 20.0245 14.3949C20.0643 14.4583 20.0773 14.5234 20.0773 14.5714H19.5059H18.9344C18.9344 14.8998 19.116 15.1526 19.3672 15.2921C19.5769 15.4086 19.823 15.443 20.0401 15.451L20.0613 14.88ZM19.5059 14.5714H20.0773C20.0773 14.6528 20.0467 14.6836 20.0694 14.6481C20.0897 14.6163 20.1359 14.5584 20.2258 14.474L19.835 14.0572L19.4441 13.6403C19.3147 13.7617 19.1962 13.8923 19.1068 14.032C19.0199 14.1679 18.9344 14.3529 18.9344 14.5714H19.5059ZM19.835 14.0572L20.2258 14.474C20.4047 14.3064 20.6153 14.1573 20.8613 14.0285L20.5961 13.5223L20.331 13.0161C20.0009 13.189 19.7041 13.3965 19.4441 13.6403L19.835 14.0572ZM20.5961 13.5223L20.8796 14.0184C21.144 13.8674 21.2701 13.8469 21.2956 13.8469V13.2754V12.704C20.9645 12.704 20.6243 12.8481 20.3126 13.0262L20.5961 13.5223ZM21.2956 13.2754V13.8469H22.2007V13.2754V12.704H21.2956V13.2754ZM22.2007 13.2754V13.8469C22.8235 13.8469 23.3213 13.82 23.6653 13.7545L23.5584 13.1932L23.4515 12.6318C23.2195 12.676 22.8122 12.704 22.2007 12.704V13.2754ZM23.5584 13.1932L23.6524 13.7568C23.6882 13.7508 23.7679 13.744 23.9081 13.744V13.1726V12.6012C23.7466 12.6012 23.5932 12.6081 23.4645 12.6295L23.5584 13.1932ZM23.9081 13.1726V13.744C24.1407 13.744 24.2358 13.7903 24.2637 13.81C24.2747 13.8176 24.2796 13.8237 24.2842 13.832C24.2898 13.8421 24.3013 13.8678 24.3077 13.9202L24.875 13.8514L25.4423 13.7827C25.3987 13.4235 25.2356 13.0959 24.9205 12.8746C24.6261 12.668 24.2653 12.6012 23.9081 12.6012V13.1726ZM24.875 13.8514L24.3073 13.9169C24.3872 14.6089 24.427 15.2933 24.427 15.9703H24.9984H25.5699C25.5699 15.2484 25.5274 14.5202 25.4427 13.786L24.875 13.8514ZM24.9984 15.9703H24.427C24.427 16.3931 24.4201 16.6928 24.4077 16.8786L24.9779 16.9166L25.548 16.9546C25.5631 16.729 25.5699 16.3978 25.5699 15.9703H24.9984ZM24.9779 16.9166L24.4121 16.8358C24.4008 16.915 24.3761 17.0527 24.3352 17.2571L24.8956 17.3692L25.4559 17.4812C25.4973 17.2742 25.5274 17.1101 25.5435 16.9974L24.9779 16.9166ZM24.8956 17.3692L24.3291 17.2936C24.2999 17.5131 24.283 17.7117 24.283 17.8834H24.8544H25.4259C25.4259 17.7809 25.4364 17.6366 25.462 17.4447L24.8956 17.3692ZM24.8544 17.8834H24.283C24.283 18.0591 24.306 18.2858 24.4261 18.486L24.9161 18.192L25.4061 17.898C25.4173 17.9168 25.4236 17.9318 25.4268 17.9406C25.4299 17.9494 25.4306 17.9534 25.4301 17.9514C25.4297 17.9494 25.4286 17.9429 25.4276 17.931C25.4266 17.9193 25.4259 17.9036 25.4259 17.8834H24.8544ZM24.9161 18.192L24.4407 18.509C24.7187 18.926 25.2175 19.0103 25.6156 19.0103V18.4389V17.8674C25.4759 17.8674 25.3984 17.8506 25.3635 17.8383C25.3339 17.8278 25.3623 17.8311 25.3916 17.875L24.9161 18.192ZM25.6156 18.4389L25.6367 19.0099C25.8217 19.003 25.9634 18.998 26.0621 18.9945C26.1115 18.9928 26.1496 18.9916 26.1767 18.9908C26.2084 18.9898 26.2159 18.9897 26.2121 18.9897V18.4183V17.8469C26.1707 17.8469 25.9544 17.8545 25.5944 17.8678L25.6156 18.4389ZM26.2121 18.4183L26.1849 18.9891C26.3764 18.9982 26.4964 19.0495 26.5791 19.1145L26.9321 18.6652L27.2852 18.2158C26.9839 17.9791 26.6239 17.8658 26.2393 17.8475L26.2121 18.4183ZM26.9321 18.6652L26.6 19.1301C26.6366 19.1563 26.6447 19.1721 26.645 19.1726C26.6455 19.1736 26.646 19.1747 26.6467 19.1772C26.6473 19.18 26.6487 19.187 26.6487 19.2H27.2201H27.7916C27.7916 18.7804 27.5932 18.4351 27.2643 18.2002L26.9321 18.6652ZM27.2201 19.2H26.6487C26.6487 19.2225 26.6422 19.2816 26.5615 19.3865L27.0144 19.7349L27.4673 20.0833C27.6609 19.8316 27.7916 19.5341 27.7916 19.2H27.2201ZM27.0144 19.7349L26.5641 19.3831L26.0498 20.0414L26.5001 20.3932L26.9504 20.7449L27.4647 20.0867L27.0144 19.7349ZM26.5001 20.3932L26.0567 20.0328C25.6878 20.4868 25.3968 20.9012 25.1954 21.273L25.6979 21.5452L26.2003 21.8173C26.3555 21.5308 26.5993 21.1773 26.9436 20.7535L26.5001 20.3932ZM25.6979 21.5452L25.1912 21.2808C24.9753 21.6948 24.8796 22.1668 24.8796 22.6766H25.451H26.0224C26.0224 22.3086 26.0913 22.0264 26.2045 21.8095L25.6979 21.5452ZM25.451 22.6766H24.8796C24.8796 22.9064 24.8948 23.1662 24.9235 23.4534L25.4921 23.3966L26.0607 23.3397C26.0346 23.0784 26.0224 22.8582 26.0224 22.6766H25.451ZM25.4921 23.3966L24.9235 23.4534C24.951 23.728 24.9718 23.9295 24.9859 24.0562L25.5539 23.9932L26.1218 23.9301C26.1084 23.81 26.0881 23.6138 26.0607 23.3397L25.4921 23.3966ZM25.5539 23.9932L24.9881 24.074C25.0692 24.6415 25.1059 25.0556 25.1059 25.3303H25.6773H26.2487C26.2487 24.9741 26.203 24.4968 26.1195 23.9124L25.5539 23.9932ZM25.6773 25.3303H25.1059C25.1059 25.514 25.0886 25.7069 25.0528 25.9098L25.6156 26.0092L26.1783 26.1085C26.2248 25.8451 26.2487 25.5855 26.2487 25.3303H25.6773ZM25.6156 26.0092L25.0552 25.8971C25.0228 26.059 24.9464 26.2111 24.8078 26.3589L25.2247 26.7497L25.6416 27.1405C25.9144 26.8495 26.0985 26.5079 26.1759 26.1212L25.6156 26.0092ZM25.2247 26.7497L24.8207 26.3457C24.6807 26.4856 24.5227 26.5797 24.3405 26.6344L24.5047 27.1817L24.6689 27.729C25.0352 27.6192 25.3573 27.4253 25.6288 27.1538L25.2247 26.7497ZM24.5047 27.1817L24.3326 26.6368C23.8869 26.7776 23.2853 26.8572 22.5093 26.8572V27.4286V28C23.3516 28 24.0801 27.915 24.6768 27.7266L24.5047 27.1817ZM22.5093 27.4286L22.5188 26.8572L21.2845 26.8366L21.275 27.408L21.2655 27.9794L22.4997 28L22.5093 27.4286ZM36.7778 13.44L36.7989 12.8689L36.7928 12.8688L36.7778 13.44ZM36.9835 14.2629L37.3744 14.6797L37.3752 14.679L36.9835 14.2629ZM36.2018 14.8183L35.9282 14.3166L35.9232 14.3193L35.9183 14.3222L36.2018 14.8183ZM34.9264 15.0652V14.4937H34.214L34.3685 15.1891L34.9264 15.0652ZM35.2349 18.7269L34.6698 18.6421L34.6693 18.6461L35.2349 18.7269ZM34.0418 20.3314L33.7165 19.8616L32.9399 20.3993L33.7767 20.8376L34.0418 20.3314ZM35.0498 21.5452L34.4883 21.6514L34.4889 21.6542L35.0498 21.5452ZM35.1115 25.4537L34.5411 25.4202L34.499 26.1351L35.2055 26.0174L35.1115 25.4537ZM36.9218 25.4332L36.5177 25.8372L36.5273 25.8468L36.5374 25.856L36.9218 25.4332ZM36.8601 26.688L36.419 26.3248L36.4124 26.3327L36.4061 26.3409L36.8601 26.688ZM36.1195 27.2023L36.2949 27.7461L36.3011 27.7441L36.3072 27.742L36.1195 27.2023ZM33.2189 27.6754L33.1973 27.1044L33.1931 27.1046L33.1889 27.1048L33.2189 27.6754ZM32.4989 27.4697L32.8227 26.9989L32.8193 26.9965L32.8159 26.9942L32.4989 27.4697ZM32.1904 26.8937L31.6191 26.8839L31.6189 26.8888V26.8937H32.1904ZM32.0875 22.1623L32.5496 21.8262L32.5345 21.8054L32.5176 21.786L32.0875 22.1623ZM31.2647 21.792L31.0789 22.3324L31.0889 22.3358L31.0989 22.3389L31.2647 21.792ZM30.4624 21.5246L30.2406 22.0512L30.2723 22.0646L30.3054 22.074L30.4624 21.5246ZM30.2978 20.3932L29.8407 20.0503L29.837 20.0552L30.2978 20.3932ZM30.8121 19.92L30.5485 19.413L30.5448 19.4149L30.5412 19.4169L30.8121 19.92ZM31.3264 19.6526L31.59 20.1596L31.5915 20.1588L31.3264 19.6526ZM31.9641 19.2617L31.628 18.7996L31.6174 18.8073L31.6071 18.8155L31.9641 19.2617ZM32.2932 18.8297L31.768 18.6046L31.7637 18.6145L31.7599 18.6246L32.2932 18.8297ZM32.3961 18.0892L32.9669 18.0632L32.9665 18.0553L32.966 18.0474L32.3961 18.0892ZM31.8612 14.6126L32.4181 14.4846L32.412 14.4578L32.4033 14.4319L31.8612 14.6126ZM32.4784 13.5634L32.7531 14.0645L32.7593 14.0611L32.7653 14.0576L32.4784 13.5634ZM34.0007 13.2137L33.8621 13.7681L33.888 13.7746L33.9145 13.7786L34.0007 13.2137ZM36.7778 13.44L36.7567 14.011C36.8277 14.0137 36.8776 14.0199 36.9101 14.0263C36.944 14.033 36.9467 14.0376 36.9313 14.0296C36.9145 14.0209 36.8673 13.9923 36.8249 13.9294C36.7793 13.8619 36.7618 13.7881 36.7618 13.728H37.3332H37.9047C37.9047 13.5788 37.864 13.4261 37.7721 13.29C37.6834 13.1586 37.5668 13.0717 37.4574 13.015C37.2525 12.9088 37.0128 12.8768 36.7989 12.8689L36.7778 13.44ZM37.3332 13.728H36.7618C36.7618 13.6813 36.7716 13.6506 36.7754 13.6405C36.779 13.6306 36.7791 13.6342 36.7675 13.6518C36.7429 13.6894 36.6903 13.7541 36.5919 13.8468L36.9835 14.2629L37.3752 14.679C37.5099 14.5522 37.6321 14.418 37.7241 14.2773C37.8121 14.1427 37.9047 13.9533 37.9047 13.728H37.3332ZM36.9835 14.2629L36.5927 13.846C36.4132 14.0143 36.1933 14.172 35.9282 14.3166L36.2018 14.8183L36.4755 15.32C36.8137 15.1354 37.1151 14.9229 37.3744 14.6797L36.9835 14.2629ZM36.2018 14.8183L35.9183 14.3222C35.654 14.4732 35.5279 14.4937 35.5024 14.4937V15.0652V15.6366C35.8335 15.6366 36.1737 15.4925 36.4853 15.3144L36.2018 14.8183ZM35.5024 15.0652V14.4937H34.9264V15.0652V15.6366H35.5024V15.0652ZM34.9264 15.0652L34.3685 15.1891C34.6104 16.2776 34.7252 17.1656 34.7252 17.8629H35.2967H35.8681C35.8681 17.0516 35.736 16.0744 35.4842 14.9412L34.9264 15.0652ZM35.2967 17.8629H34.7252C34.7252 18.1386 34.7064 18.3982 34.6698 18.6421L35.2349 18.7269L35.8 18.8116C35.8457 18.507 35.8681 18.1905 35.8681 17.8629H35.2967ZM35.2349 18.7269L34.6693 18.6461C34.6185 19.001 34.3632 19.4139 33.7165 19.8616L34.0418 20.3314L34.3671 20.8013C35.1467 20.2616 35.6868 19.6048 35.8007 18.8077L35.2349 18.7269ZM34.0418 20.3314L33.7767 20.8376C34.2419 21.0813 34.433 21.359 34.4883 21.6514L35.0498 21.5452L35.6113 21.4389C35.4746 20.7165 34.9937 20.185 34.3069 19.8253L34.0418 20.3314ZM35.0498 21.5452L34.4889 21.6542C34.5761 22.103 34.6224 22.641 34.6224 23.2732H35.1938H35.7652C35.7652 22.5888 35.7155 21.9748 35.6107 21.4361L35.0498 21.5452ZM35.1938 23.2732H34.6224C34.6224 23.7777 34.5957 24.4915 34.5411 25.4202L35.1115 25.4537L35.682 25.4873C35.7371 24.5508 35.7652 23.8109 35.7652 23.2732H35.1938ZM35.1115 25.4537L35.2055 26.0174C35.3935 25.986 35.6585 25.9265 35.9907 25.8435L35.8521 25.2892L35.7135 24.7348C35.3873 24.8164 35.1587 24.8666 35.0176 24.8901L35.1115 25.4537ZM35.8521 25.2892L35.9907 25.8435C36.1201 25.8112 36.2237 25.7989 36.3047 25.7989V25.2274V24.656C36.1113 24.656 35.9132 24.6849 35.7135 24.7348L35.8521 25.2892ZM36.3047 25.2274V25.7989C36.3959 25.7989 36.4524 25.8105 36.484 25.821C36.4991 25.826 36.5079 25.8306 36.5121 25.8332C36.5161 25.8356 36.5175 25.837 36.5177 25.8372L36.9218 25.4332L37.3259 25.0291C37.0437 24.747 36.6671 24.656 36.3047 24.656V25.2274ZM36.9218 25.4332L36.5374 25.856C36.5593 25.8759 36.5767 25.8958 36.5767 25.968H37.1481H37.7195C37.7195 25.6014 37.586 25.2647 37.3062 25.0104L36.9218 25.4332ZM37.1481 25.968H36.5767C36.5767 26.0546 36.5462 26.1702 36.419 26.3248L36.8601 26.688L37.3012 27.0513C37.558 26.7395 37.7195 26.3751 37.7195 25.968H37.1481ZM36.8601 26.688L36.4061 26.3409C36.3049 26.4733 36.1565 26.5844 35.9318 26.6626L36.1195 27.2023L36.3072 27.742C36.7133 27.6008 37.0587 27.369 37.314 27.0352L36.8601 26.688ZM36.1195 27.2023L35.9441 26.6585C35.1528 26.9137 34.2392 27.0649 33.1973 27.1044L33.2189 27.6754L33.2407 28.2465C34.3656 28.2037 35.3856 28.0394 36.2949 27.7461L36.1195 27.2023ZM33.2189 27.6754L33.1889 27.1048C33.0568 27.1118 32.9407 27.08 32.8227 26.9989L32.4989 27.4697L32.1752 27.9406C32.4961 28.1612 32.86 28.2665 33.249 28.2461L33.2189 27.6754ZM32.4989 27.4697L32.8159 26.9942C32.7806 26.9707 32.7725 26.9556 32.7712 26.953C32.7699 26.9505 32.7618 26.9357 32.7618 26.8937H32.1904H31.6189C31.6189 27.332 31.8176 27.7022 32.182 27.9452L32.4989 27.4697ZM32.1904 26.8937L32.7617 26.9036C32.7755 26.103 32.7824 24.9059 32.7824 23.3143H32.2109H31.6395C31.6395 24.9044 31.6327 26.0936 31.6191 26.8839L32.1904 26.8937ZM32.2109 23.3143H32.7824C32.7824 23.2282 32.7878 23.1526 32.7972 23.0865L32.2315 23.0057L31.6659 22.9249C31.6479 23.0509 31.6395 23.181 31.6395 23.3143H32.2109ZM32.2315 23.0057L32.7972 23.0865C32.8147 22.9641 32.8235 22.841 32.8235 22.7177H32.2521H31.6807C31.6807 22.7864 31.6757 22.8554 31.6659 22.9249L32.2315 23.0057ZM32.2521 22.7177H32.8235C32.8235 22.3995 32.7423 22.0911 32.5496 21.8262L32.0875 22.1623L31.6254 22.4984C31.6521 22.5352 31.6807 22.5971 31.6807 22.7177H32.2521ZM32.0875 22.1623L32.5176 21.786C32.3835 21.6328 32.1933 21.5334 32.0443 21.4664C31.8759 21.3906 31.6685 21.3173 31.4304 21.2452L31.2647 21.792L31.0989 22.3389C31.3134 22.4039 31.4694 22.4609 31.5753 22.5085C31.628 22.5322 31.6603 22.5501 31.6776 22.561C31.698 22.5738 31.6832 22.5681 31.6575 22.5386L32.0875 22.1623ZM31.2647 21.792L31.4504 21.2516C31.0183 21.1031 30.7335 21.0077 30.6193 20.9752L30.4624 21.5246L30.3054 22.074C30.3833 22.0963 30.6333 22.1792 31.0789 22.3324L31.2647 21.792ZM30.4624 21.5246L30.6841 20.998C30.618 20.9701 30.6127 20.9528 30.6242 20.968C30.6302 20.9758 30.6361 20.9867 30.6399 20.9984C30.6435 21.0097 30.6429 21.0149 30.6429 21.0103H30.0715H29.5001C29.5001 21.2408 29.5672 21.466 29.7143 21.6595C29.8561 21.8461 30.0461 21.9693 30.2406 22.0512L30.4624 21.5246ZM30.0715 21.0103H30.6429C30.6429 20.9527 30.6621 20.8626 30.7586 20.7311L30.2978 20.3932L29.837 20.0552C29.6318 20.3351 29.5001 20.6564 29.5001 21.0103H30.0715ZM30.2978 20.3932L30.7549 20.736C30.8865 20.5606 30.9987 20.4685 31.083 20.4232L30.8121 19.92L30.5412 19.4169C30.2689 19.5635 30.0383 19.7868 29.8407 20.0503L30.2978 20.3932ZM30.8121 19.92L31.0757 20.427L31.59 20.1596L31.3264 19.6526L31.0628 19.1456L30.5485 19.413L30.8121 19.92ZM31.3264 19.6526L31.5915 20.1588C31.8896 20.0026 32.1407 19.8522 32.3211 19.708L31.9641 19.2617L31.6071 18.8155C31.5132 18.8906 31.3392 19.0008 31.0612 19.1464L31.3264 19.6526ZM31.9641 19.2617L32.3002 19.7238C32.5424 19.5477 32.7195 19.3134 32.8266 19.0349L32.2932 18.8297L31.7599 18.6246C31.7299 18.7026 31.6875 18.7564 31.628 18.7996L31.9641 19.2617ZM32.2932 18.8297L32.8185 19.0548C32.9464 18.7564 32.9829 18.4154 32.9669 18.0632L32.3961 18.0892L31.8252 18.1151C31.8367 18.3663 31.8047 18.519 31.768 18.6046L32.2932 18.8297ZM32.3961 18.0892L32.966 18.0474C32.8814 16.8914 32.6984 15.7037 32.4181 14.4846L31.8612 14.6126L31.3043 14.7406C31.5727 15.9077 31.7462 17.0377 31.8262 18.1309L32.3961 18.0892ZM31.8612 14.6126L32.4033 14.4319C32.4074 14.444 32.4097 14.4534 32.411 14.4594C32.4123 14.4654 32.4127 14.469 32.4128 14.4697C32.4129 14.4704 32.4127 14.469 32.4125 14.4652C32.4123 14.4614 32.4121 14.4557 32.4121 14.448H31.8407H31.2692C31.2692 14.5466 31.2781 14.6701 31.3191 14.7933L31.8612 14.6126ZM31.8407 14.448H32.4121C32.4121 14.3737 32.4358 14.2385 32.7531 14.0645L32.4784 13.5634L32.2036 13.0624C31.6707 13.3547 31.2692 13.8092 31.2692 14.448H31.8407ZM32.4784 13.5634L32.7653 14.0576C33.1171 13.8533 33.4443 13.7646 33.7538 13.7646V13.1932V12.6217C33.2131 12.6217 32.6899 12.7798 32.1915 13.0693L32.4784 13.5634ZM33.7538 13.1932V13.7646C33.7976 13.7646 33.8291 13.766 33.8504 13.7677C33.8734 13.7697 33.8748 13.7713 33.8621 13.7681L34.0007 13.2137L34.1392 12.6594C34.0144 12.6282 33.8752 12.6217 33.7538 12.6217V13.1932ZM34.0007 13.2137L33.9145 13.7786C34.7525 13.9065 35.7028 13.9833 36.7628 14.0113L36.7778 13.44L36.7928 12.8688C35.7683 12.8418 34.8671 12.7678 34.0868 12.6488L34.0007 13.2137Z" fill="black"/>
</g>
<path d="M28 22.2861H28.2857L30.2857 24.5718H29.4286L28 25.7147V22.2861Z" fill="#D9D9D9"/>
<path d="M31.0142 25.4432H29.9355C29.9162 25.4432 29.8981 25.4527 29.8875 25.4689C29.877 25.4852 29.8757 25.5059 29.8837 25.5236L30.7073 27.3595L29.7486 27.6999L28.9099 25.8026C28.903 25.7869 28.889 25.7753 28.8725 25.7708C28.8642 25.7685 28.8557 25.7682 28.8474 25.7697L28.8245 25.7792L27.7715 26.5252V21.8623L31.0142 25.4432ZM28.0957 22.6988H28.0382V25.9053C28.0382 25.9266 28.0505 25.9462 28.0695 25.9561C28.0884 25.9657 28.1113 25.9639 28.1286 25.9516L28.6727 25.5654L28.6733 25.566L28.9975 25.3366L29.1593 25.6932V25.6938L29.8758 27.3216C29.8881 27.349 29.9195 27.3622 29.9478 27.3517L30.2943 27.2233C30.3092 27.2178 30.3212 27.2062 30.3273 27.1916C30.3333 27.177 30.3331 27.1607 30.3267 27.1464L29.6409 25.6318L29.4372 25.1787H30.286C30.3086 25.1787 30.3293 25.1653 30.3385 25.1446C30.3475 25.1241 30.3435 25.1 30.3284 25.0833L28.1381 22.6603L28.0957 22.6988Z" fill="white" stroke="black" stroke-width="0.114286" stroke-linejoin="round"/>
<path d="M28.0586 22.6289L30.2872 25.086V25.1432H29.3729L30.2872 27.2003L29.9443 27.3146H29.8872L29.03 25.3146L28.0586 25.9432V22.6289Z" fill="black"/>
</svg>
